<svg width="25" height="25" viewBox="0 0 25 25" fill="none" xmlns="http://www.w3.org/2000/svg">
<path d="M15.6836 11.3965L10.4102 9.85352C9.79986 9.67773 9.37505 9.10645 9.37505 8.47168C9.37505 7.67578 10.0196 7.03125 10.8155 7.03125H14.0528C14.6485 7.03125 15.2344 7.21191 15.7227 7.54395C16.0206 7.74414 16.4209 7.69531 16.6749 7.44629L18.3741 5.78613C18.7208 5.44922 18.6719 4.8877 18.2862 4.58984C17.0899 3.65234 15.5958 3.12988 14.0626 3.125V0.78125C14.0626 0.351562 13.711 0 13.2813 0H11.7188C11.2891 0 10.9376 0.351562 10.9376 0.78125V3.125H10.8155C7.70513 3.125 5.20513 5.7959 5.49322 8.96484C5.69829 11.2158 7.41704 13.0469 9.58501 13.6816L14.5899 15.1465C15.2002 15.3271 15.6251 15.8936 15.6251 16.5283C15.6251 17.3242 14.9805 17.9688 14.1846 17.9688H10.9473C10.3516 17.9688 9.76568 17.7881 9.2774 17.4561C8.97954 17.2559 8.57915 17.3047 8.32525 17.5537L6.62603 19.2139C6.27935 19.5508 6.32818 20.1123 6.71392 20.4102C7.91021 21.3477 9.40435 21.8701 10.9376 21.875V24.2188C10.9376 24.6484 11.2891 25 11.7188 25H13.2813C13.711 25 14.0626 24.6484 14.0626 24.2188V21.8652C16.3379 21.8213 18.4717 20.4688 19.2237 18.3154C20.2735 15.3076 18.5108 12.2217 15.6836 11.3965Z" fill="black"/>
</svg>
