<svg width="26" height="25" viewBox="0 0 26 25" fill="none" xmlns="http://www.w3.org/2000/svg">
<path d="M12.0403 12.5146L5.40482 5.87402C4.94619 5.41504 4.94619 4.67285 5.40482 4.21875L6.50749 3.11523C6.96612 2.65625 7.70774 2.65625 8.16149 3.11523L12.8649 7.82227L17.5683 3.11523C18.0269 2.65625 18.7685 2.65625 19.2223 3.11523L20.3347 4.21387C20.7933 4.67285 20.7933 5.41504 20.3347 5.86914L13.6992 12.5098C13.2406 12.9736 12.499 12.9736 12.0403 12.5146ZM13.6992 21.8896L20.3347 15.249C20.7933 14.79 20.7933 14.0479 20.3347 13.5937L19.232 12.4902C18.7734 12.0312 18.0318 12.0312 17.578 12.4902L12.8698 17.1924L8.16637 12.4854C7.70774 12.0264 6.96612 12.0264 6.51237 12.4854L5.40482 13.5889C4.94619 14.0478 4.94619 14.79 5.40482 15.2441L12.0403 21.8848C12.499 22.3486 13.2406 22.3486 13.6992 21.8896Z" fill="#D21C1C"/>
</svg>
