<svg width="26" height="25" viewBox="0 0 26 25" fill="none" xmlns="http://www.w3.org/2000/svg">
<path d="M14.0407 12.4854L20.6762 19.126C21.1348 19.585 21.1348 20.3271 20.6762 20.7812L19.5735 21.8848C19.1149 22.3437 18.3733 22.3437 17.9195 21.8848L13.2161 17.1777L8.51273 21.8848C8.0541 22.3437 7.31249 22.3437 6.85874 21.8848L5.74631 20.7861C5.28768 20.3271 5.28768 19.585 5.74631 19.1309L12.3818 12.4902C12.8404 12.0264 13.5821 12.0264 14.0407 12.4854ZM12.3818 3.11035L5.74632 9.75098C5.28768 10.21 5.28768 10.9521 5.74631 11.4062L6.84898 12.5098C7.30761 12.9687 8.04922 12.9687 8.50298 12.5098L13.2113 7.80762L17.9147 12.5146C18.3733 12.9736 19.1149 12.9736 19.5687 12.5146L20.6762 11.4111C21.1348 10.9522 21.1348 10.21 20.6762 9.75586L14.0407 3.11523C13.5821 2.65137 12.8405 2.65137 12.3818 3.11035Z" fill="#27BB5A"/>
</svg>
